<svg id="Layer_1" data-name="Layer 1" xmlns="http://www.w3.org/2000/svg" viewBox="0 0 757.79 757.79"><defs><style>.cls-1{fill:#181a1f;}.cls-2{fill:#0dcb81;}</style></defs><title>Coin</title><rect class="cls-1" width="757.79" height="757.79"/><path class="cls-2" d="M518.4,431.5l-112.3-236c-10.91-22.93-43.56-22.91-54.45,0L239.29,432.44a24.64,24.64,0,0,0,10.11,32h0a27.14,27.14,0,0,0,38.07-12.33L302.6,419l152.69-.2,14.56,33.14a27.07,27.07,0,0,0,37.63,12.94h0A25.49,25.49,0,0,0,518.4,431.5ZM456.3,380a11.86,11.86,0,0,1-11.84,11.8l-132.57.34a10.7,10.7,0,0,1-10.74-10.71v-2a12,12,0,0,1,12-12H324l54.94-116.93,54,116.93h12.7a10.72,10.72,0,0,1,10.72,10.79Z"/><path class="cls-2" d="M473,476.22S431.81,511.1,378.89,513c-47.87,1.71-93.49-36.76-93.49-36.76s-.69,56.22,2.39,74.64c3.14,18.75,15.19,49.18,32,69,24.51,28.93,58.89,40.85,58.89,40.85s37.87-13.76,60.08-40.85c20.94-25.53,29.79-58.9,32.86-71.49C475.88,530.85,473,476.22,473,476.22Zm-31.49,83.23c-1.46,8.78-1.13,22.23-21.11,49.36C406.13,628.17,379,636.9,379,636.9s-23.6-8.18-40.42-28c-11.54-13.62-18-31.77-20.13-44.64-2.12-12.64,0-42.73,0-42.73s27.84,15.17,60.7,14C415.45,534.2,439.79,520,439.79,520S443.62,546.69,441.49,559.45Z"/><path class="cls-2" d="M400.4,575.91a21,21,0,1,0-30.29,18.76l-3.6,24.61s9.73.9,13,.92c3.55,0,14.08-.92,14.08-.92l-4.42-24.8A20.94,20.94,0,0,0,400.4,575.91Zm-20.59-6.85a8.2,8.2,0,1,1-8.2,8.2A8.2,8.2,0,0,1,379.81,569.06Z"/><path class="cls-2" d="M378.89,97.06c-139.81,0-253.15,114.93-253.15,256.7A257.26,257.26,0,0,0,250.61,575.09,121.21,121.21,0,0,1,248,550.86c0-6.86,1.06-21.36,1.67-29.19a215.55,215.55,0,0,1-82.19-169.9c0-118.66,94.86-214.85,211.88-214.85s211.87,96.19,211.87,214.85a215.57,215.57,0,0,1-79.46,167.72,261.13,261.13,0,0,1-.75,31.37c-.71,8.06-2.07,16.59-3.49,24A257.26,257.26,0,0,0,632,353.76C632,212,518.7,97.06,378.89,97.06Z"/></svg>