<svg id="Layer_1" data-name="Layer 1" xmlns="http://www.w3.org/2000/svg" viewBox="0 0 2641.02 2573.62"><defs><style>.cls-1{fill:#0f1826;}.cls-2{fill:#fff;}</style></defs><title>Logo-Toan</title><rect class="cls-1" x="159.21" y="134.52" width="2375.77" height="2375.77"/><path class="cls-2" d="M2387.22,1183.52c-64.15-446.36-423-799.69-877.12-864.18-15-44.43-78.14-77.77-153.73-77.77-76.28,0-139.85,33.95-154.14,79C752.56,388.12,398,739.23,333.73,1182.24c-34.32,25.33-57.64,75-57.64,132.11,0,55,21.67,103.13,53.94,129.23,53.65,462.52,422.81,830.94,891,892.69,24.14,33.23,76.06,56.22,136.23,56.22,59.61,0,111.12-22.55,135.55-55.28,472-59.07,844.78-429.64,898.06-895.15,31.32-26.4,52.21-73.76,52.21-127.81C2443.06,1258.13,2420.55,1209.25,2387.22,1183.52Zm-114.4,230.26a105.68,105.68,0,0,1-56.47-16.23C2181.88,1804.91,1860.94,2131,1454.94,2175a100.7,100.7,0,0,1,10.11,44.05c0,56.71-46.88,102.68-104.7,102.68s-104.69-46-104.69-102.68a100.54,100.54,0,0,1,10.17-44.18c-405.38-44.52-725.72-370.21-760.29-777.07a105.66,105.66,0,0,1-56,16c-57.82,0-104.69-46-104.69-102.68s46.87-102.69,104.69-102.69A105.67,105.67,0,0,1,508.12,1226c45.81-397.1,364.51-711.44,764.55-752.16a101,101,0,0,1-20.6-61.1c0-57.44,48.31-104,107.9-104s107.9,46.57,107.9,104a101.07,101.07,0,0,1-20.44,60.88c401,40,720.6,354.84,766.36,752.67a105.68,105.68,0,0,1,59-17.88c57.82,0,104.69,46,104.69,102.69S2330.64,1413.78,2272.82,1413.78Z"/><path class="cls-2" d="M1360.35,715.3c-336.93,0-610.07,272-610.07,607.43s273.14,607.44,610.07,607.44,610.08-272,610.08-607.44S1697.29,715.3,1360.35,715.3Zm0,1045.66c-243.59,0-441.06-196.62-441.06-439.16s197.47-439.15,441.06-439.15,441.06,196.62,441.06,439.15S1604,1761,1360.35,1761Z"/></svg>