<?xml version="1.0" standalone="no"?>
<!DOCTYPE svg PUBLIC "-//W3C//DTD SVG 20010904//EN"
 "http://www.w3.org/TR/2001/REC-SVG-20010904/DTD/svg10.dtd">
<svg version="1.0" xmlns="http://www.w3.org/2000/svg"
 width="1024.000000pt" height="1024.000000pt" viewBox="0 0 1024.000000 1024.000000"
 preserveAspectRatio="xMidYMid meet">

<g transform="translate(0.000000,1024.000000) scale(0.100000,-0.100000)"
fill="#000000" stroke="none">
<path d="M4949 9027 c-182 -243 -474 -613 -505 -638 -10 -9 -79 -28 -151 -42
-470 -96 -1010 -375 -1408 -728 -138 -122 -293 -279 -385 -389 -110 -131 -298
-421 -387 -597 -106 -208 -160 -348 -224 -578 l-53 -190 -195 -205 c-410 -429
-521 -548 -521 -558 0 -6 21 -28 47 -49 25 -21 191 -187 369 -370 352 -363
326 -328 385 -528 74 -254 208 -525 404 -820 258 -388 563 -695 935 -941 314
-207 614 -340 992 -439 103 -27 186 -54 208 -69 56 -37 302 -315 531 -599 90
-112 114 -136 124 -125 6 7 40 49 76 93 35 44 86 105 115 135 28 30 114 134
191 230 78 96 165 198 195 227 57 56 39 49 303 114 403 98 814 302 1155 575
221 177 515 503 696 774 139 208 301 530 410 814 l69 179 387 380 c213 209
390 389 394 399 4 14 -12 36 -62 86 -36 37 -143 153 -235 259 -93 105 -225
245 -293 310 -68 65 -128 128 -134 139 -6 12 -32 88 -58 170 -130 420 -328
801 -591 1139 -205 263 -492 531 -763 712 -335 224 -672 371 -1043 456 l-142
33 -73 89 c-40 50 -181 234 -314 410 -132 176 -250 330 -262 342 l-21 22 -166
-222z m271 8 c204 -286 527 -694 554 -700 12 -2 62 -11 111 -20 338 -58 718
-221 1065 -455 186 -126 274 -197 438 -355 253 -244 461 -514 628 -820 120
-218 194 -398 274 -660 64 -211 62 -207 107 -238 21 -15 113 -107 203 -204
369 -397 424 -456 442 -466 10 -7 18 -16 18 -22 0 -6 -169 -177 -376 -380
-207 -204 -384 -386 -394 -405 -10 -19 -55 -127 -100 -240 -192 -478 -410
-834 -718 -1173 -365 -403 -804 -686 -1317 -850 -101 -32 -154 -45 -377 -92
l-77 -16 -56 -70 c-91 -110 -75 -80 28 53 51 68 112 150 134 183 63 92 87 111
173 129 41 9 120 31 175 48 86 26 97 32 76 39 -25 10 -72 4 -241 -32 -138 -28
-160 -41 -165 -90 0 -3 -18 -30 -41 -60 -23 -30 -92 -126 -154 -214 -62 -88
-139 -191 -170 -230 -31 -38 -109 -142 -173 -230 -63 -88 -131 -178 -150 -199
l-34 -39 -58 76 c-31 43 -61 77 -65 77 -11 0 -382 500 -509 685 -128 185 -132
190 -197 214 -78 30 -296 73 -308 61 -12 -12 -2 -15 202 -76 124 -36 166 -53
174 -69 10 -18 47 -70 228 -325 l61 -85 -48 50 c-83 86 -133 125 -160 125 -48
0 -275 61 -432 116 -189 67 -534 235 -686 334 -487 319 -882 765 -1165 1313
-96 187 -158 342 -205 512 -29 107 -41 136 -69 165 -18 19 -180 186 -359 370
l-325 334 71 80 c40 44 117 128 172 186 55 58 167 177 250 265 82 88 160 168
174 177 16 11 27 29 29 50 7 62 104 384 153 506 165 412 440 818 764 1122 141
133 172 160 302 257 292 218 612 387 934 491 118 39 312 82 365 82 50 0 87 34
221 203 75 95 172 217 216 272 44 55 125 164 181 242 55 78 104 139 107 135 4
-4 48 -65 99 -137z m-524 -7322 c32 -38 48 -59 35 -48 -27 23 -105 115 -98
115 2 0 31 -30 63 -67z m874 63 c0 -2 -8 -10 -17 -17 -16 -13 -17 -12 -4 4 13
16 21 21 21 13z m-30 -40 c0 -2 -8 -10 -17 -17 -16 -13 -17 -12 -4 4 13 16 21
21 21 13z m-30 -39 c0 -2 -10 -12 -22 -23 l-23 -19 19 23 c18 21 26 27 26 19z
m-40 -50 c0 -2 -12 -14 -27 -28 l-28 -24 24 28 c23 25 31 32 31 24z"/>
<path d="M4978 8878 c-74 -90 -179 -221 -233 -293 -54 -71 -135 -175 -180
-230 -143 -177 -181 -229 -159 -221 44 17 211 49 404 77 155 22 212 34 232 49
15 11 31 20 36 20 20 0 -6 70 -56 153 -32 51 -52 96 -50 109 2 16 20 -4 72
-86 l69 -108 54 54 c30 29 73 79 94 111 43 62 42 61 69 47 15 -8 18 -5 22 25
4 31 0 36 -29 50 -18 9 -40 29 -48 45 -11 21 -23 30 -40 30 -32 0 -32 -16 0
-62 31 -46 31 -58 1 -58 -16 0 -35 13 -56 40 -21 26 -40 40 -55 40 -30 0 -39
-14 -20 -30 28 -24 16 -33 -34 -27 -37 4 -53 2 -62 -9 -18 -22 -53 11 -39 37
25 45 6 38 -30 -11 -22 -31 -39 -67 -40 -82 0 -20 -4 -26 -15 -22 -9 4 -15 0
-15 -8 0 -18 -17 -38 -123 -146 -65 -67 -81 -89 -81 -114 -1 -47 -19 -44 -44
6 l-21 45 44 60 c24 33 79 100 122 149 86 97 141 164 264 320 67 85 83 101 95
91 22 -18 129 -161 148 -197 18 -35 40 -40 70 -17 17 13 18 18 7 38 -20 38
-220 287 -230 287 -6 0 -70 -73 -143 -162z m32 -489 c60 -97 70 -130 20 -70
-32 38 -90 142 -90 162 0 18 4 12 70 -92z m-95 -1 c15 -24 39 -55 52 -69 16
-18 21 -29 14 -34 -12 -7 -170 1 -179 9 -4 5 76 136 83 136 1 0 15 -19 30 -42z
m-318 -112 c-3 -8 1 -17 9 -20 22 -8 17 -33 -8 -40 -31 -8 -68 -8 -68 1 0 3
11 21 26 40 25 33 51 45 41 19z"/>
<path d="M5098 8828 c-8 -13 -20 -33 -26 -45 -11 -20 -10 -21 16 -14 15 4 39
4 55 0 15 -4 27 -5 27 -3 0 5 -52 84 -55 84 -2 0 -9 -10 -17 -22z"/>
<path d="M5031 8714 c-13 -29 -1 -31 23 -5 14 15 14 19 3 24 -9 3 -19 -4 -26
-19z"/>
<path d="M5004 8669 c-11 -19 13 -34 31 -19 13 11 13 15 3 21 -18 12 -26 11
-34 -2z"/>
<path d="M5365 8659 c2 -12 9 -27 15 -34 6 -7 9 -17 8 -22 -2 -5 32 -47 74
-93 107 -119 207 -240 224 -272 l15 -28 -36 0 c-20 0 -45 5 -56 10 -21 12 -26
49 -8 67 6 6 9 19 7 29 -4 16 -7 15 -18 -8 -7 -16 -17 -28 -21 -28 -14 0 -192
185 -190 197 2 16 -17 53 -28 53 -16 0 -193 -241 -188 -254 11 -29 74 -47 213
-61 126 -14 346 -50 429 -71 25 -6 28 -5 19 7 -6 8 -78 100 -160 204 -81 105
-174 220 -207 258 -59 67 -100 88 -92 46z m32 -297 l31 -77 -79 -3 c-116 -4
-118 0 -52 86 30 39 58 72 62 72 3 0 20 -35 38 -78z"/>
<path d="M4292 8229 c-18 -5 -30 -14 -27 -19 3 -4 20 -1 38 7 52 26 49 29 -11
12z"/>
<path d="M5899 8219 c13 -10 31 -20 40 -20 9 -1 32 -2 51 -4 19 -1 36 -7 38
-14 2 -6 8 -9 13 -5 5 3 9 -1 9 -8 0 -10 2 -10 8 0 12 18 75 4 68 -15 -4 -8
-9 -27 -12 -41 -4 -22 -2 -20 11 8 21 45 18 43 59 26 33 -14 36 -18 30 -43
l-6 -28 16 23 c10 12 25 22 34 23 42 2 -128 58 -298 97 -83 20 -84 20 -61 1z"/>
<path d="M4160 8190 c0 -6 11 -8 25 -4 20 5 25 2 31 -20 3 -15 8 -25 11 -23 2
3 1 16 -3 31 -5 21 -12 26 -35 26 -16 0 -29 -5 -29 -10z"/>
<path d="M4107 8184 c-3 -3 -3 -12 0 -20 4 -11 7 -11 19 1 8 7 14 16 14 19 0
8 -25 8 -33 0z"/>
<path d="M4018 8152 c-44 -16 -46 -18 -32 -37 15 -19 15 -19 12 -1 -2 16 5 21
37 28 22 5 44 13 49 18 15 15 -11 11 -66 -8z"/>
<path d="M4935 8153 c-446 -39 -1052 -241 -1412 -470 -341 -218 -733 -613
-964 -973 -240 -374 -329 -624 -435 -1225 -15 -81 -19 -94 -25 -70 -12 54 -9
188 6 289 8 55 15 106 14 115 -2 35 -28 -86 -40 -187 -18 -143 -19 -785 -1
-897 16 -104 64 -336 69 -332 2 2 -6 76 -17 163 -23 178 -28 479 -10 689 11
137 47 273 180 685 100 312 119 362 133 353 6 -3 7 -1 3 6 -16 25 134 290 263
465 67 90 434 479 558 590 85 76 266 209 350 255 43 24 114 65 158 91 251 149
611 284 908 340 287 54 667 48 942 -15 232 -53 642 -210 850 -326 61 -34 141
-77 179 -96 114 -57 239 -139 323 -210 137 -116 257 -230 305 -290 59 -72 86
-104 73 -84 -7 11 -7 13 2 7 14 -8 73 -90 73 -101 0 -3 -5 -3 -12 1 -7 4 -8 3
-4 -5 4 -6 11 -9 16 -6 4 3 31 -26 59 -65 52 -71 60 -87 39 -74 -7 4 -8 3 -4
-5 4 -6 11 -9 16 -6 11 7 119 -167 203 -325 68 -129 150 -325 144 -343 -1 -5
-18 26 -36 69 -47 113 -154 316 -215 409 -30 44 -74 112 -98 150 -93 145 -373
468 -402 462 -6 -1 -10 4 -8 10 4 22 -145 159 -216 199 -20 12 -93 58 -162
104 -225 149 -649 341 -936 423 -203 58 -390 86 -620 94 -421 14 -789 -64
-1219 -259 -335 -152 -451 -235 -798 -571 -284 -274 -516 -550 -600 -712 -14
-28 -40 -70 -56 -95 -31 -46 -39 -66 -21 -55 6 3 7 -1 3 -10 -4 -12 -8 -13
-13 -5 -5 8 -16 -2 -31 -29 -12 -23 -26 -41 -31 -41 -4 0 -8 -10 -7 -22 0 -13
3 -17 6 -10 2 6 10 12 15 12 6 0 9 -3 5 -6 -3 -3 -2 -17 4 -30 7 -20 -1 -46
-42 -137 -54 -119 -149 -360 -149 -376 0 -6 -12 -45 -26 -88 -33 -102 -46
-310 -34 -553 11 -210 31 -356 72 -508 16 -63 28 -116 25 -118 -4 -5 -35 103
-87 309 -13 48 -27 87 -31 87 -5 0 -9 8 -9 17 0 9 -3 14 -6 10 -17 -16 75
-427 140 -628 125 -384 355 -747 681 -1075 170 -171 281 -262 475 -391 245
-163 366 -224 610 -308 139 -47 462 -126 610 -149 431 -67 795 -40 1366 99
212 52 317 90 492 179 293 150 543 359 838 703 166 193 280 361 378 558 130
262 212 489 266 737 51 230 61 321 67 563 5 236 -9 430 -42 585 -8 36 -28 133
-46 215 -94 452 -403 987 -788 1364 -262 257 -630 502 -951 634 -108 44 -365
128 -495 162 -267 69 -583 99 -820 78z m476 -208 c174 -23 310 -53 464 -102
139 -45 361 -135 380 -154 6 -6 -28 6 -75 27 -196 84 -459 162 -671 198 -395
68 -799 29 -1244 -119 -277 -93 -582 -244 -732 -365 -99 -80 -147 -115 -140
-103 12 20 188 158 262 205 80 52 293 160 405 206 233 96 484 167 715 202 156
24 474 26 636 5z m-6 -85 c280 -31 550 -110 855 -250 170 -77 233 -112 393
-216 274 -179 451 -337 632 -564 94 -118 137 -181 69 -100 -21 25 -97 102
-169 171 -379 367 -705 594 -1065 742 -226 92 -510 163 -753 188 -173 17 -509
7 -667 -20 -220 -38 -408 -93 -625 -183 -121 -50 -196 -88 -405 -206 -332
-187 -424 -255 -646 -476 -190 -190 -254 -285 -469 -696 -21 -40 -56 -83 -62
-76 -8 8 101 246 154 336 92 155 166 245 352 430 238 237 392 357 639 498 215
124 286 159 467 232 289 116 529 177 795 200 109 10 373 4 505 -10z m-30 -61
c214 -21 406 -68 665 -164 137 -50 338 -148 357 -174 7 -9 13 -11 13 -6 0 7 3
6 8 0 4 -6 66 -49 137 -97 167 -111 292 -215 490 -409 88 -86 201 -194 250
-240 50 -46 89 -87 87 -91 -1 -5 -6 -61 -11 -125 l-8 -117 44 -66 c94 -139
199 -387 243 -575 45 -185 64 -441 50 -661 -22 -343 -120 -661 -316 -1025 -46
-85 -84 -158 -84 -162 0 -4 41 35 92 86 50 51 88 86 84 80 -4 -7 -5 -13 -2
-13 3 0 10 10 17 21 8 17 8 20 -1 14 -8 -5 -11 -3 -8 6 3 8 11 13 17 11 7 -1
10 2 6 8 -9 14 31 99 50 106 7 3 13 13 13 22 -1 21 19 72 28 72 3 0 3 -8 -1
-17 -4 -10 -8 -31 -11 -48 -5 -41 -124 -279 -171 -342 -21 -28 -58 -78 -83
-110 -24 -32 -46 -66 -47 -77 -2 -10 -8 -26 -13 -35 -7 -11 -8 -6 -4 19 5 34
4 34 -28 -19 -57 -93 -169 -244 -217 -294 -304 -318 -871 -619 -1336 -711
-238 -46 -282 -50 -540 -50 -269 0 -326 6 -575 64 -339 78 -791 284 -1055 480
-104 77 -346 293 -552 492 -78 76 -147 138 -153 138 -16 0 33 -82 56 -95 27
-15 35 -23 101 -110 67 -89 225 -240 380 -362 91 -73 316 -230 368 -259 11 -6
29 -27 40 -47 31 -57 259 -193 440 -262 228 -88 340 -118 559 -150 357 -54
581 -53 877 0 155 28 218 46 409 117 198 74 335 147 593 316 74 49 329 292
441 422 58 66 52 53 -27 -63 -41 -60 -90 -115 -151 -169 -50 -44 -102 -92
-116 -107 -14 -15 -45 -42 -70 -61 -25 -19 -65 -52 -90 -73 -59 -51 -252 -165
-387 -229 -133 -62 -395 -151 -528 -177 -379 -75 -817 -73 -1201 4 -273 55
-535 153 -769 288 -68 39 -375 263 -375 274 0 3 6 1 13 -4 161 -126 400 -284
477 -315 32 -14 66 -16 76 -5 3 3 -32 26 -78 53 -96 55 -260 165 -255 170 2 2
34 -5 72 -16 38 -11 71 -18 73 -16 10 11 -67 38 -112 40 -39 2 -65 11 -106 37
-30 19 -95 59 -145 89 -143 86 -271 222 -430 457 -71 106 -143 214 -158 240
-15 26 -48 82 -74 123 -151 246 -255 512 -292 745 -40 258 -53 564 -30 750 5
44 11 179 12 300 2 218 2 221 31 290 16 39 37 95 46 125 13 46 24 60 65 90 27
19 72 55 99 80 82 73 84 73 43 -8 -34 -68 -38 -83 -33 -124 6 -40 1 -60 -25
-120 -123 -286 -168 -567 -156 -983 6 -205 18 -302 62 -477 14 -53 25 -120 25
-149 0 -45 11 -74 81 -217 81 -164 105 -198 203 -282 28 -24 28 -22 -13 50
-108 192 -193 394 -241 574 -148 555 -91 1191 146 1652 37 71 76 142 87 158
17 24 22 53 29 159 4 70 13 138 19 150 7 11 66 75 133 141 455 455 737 657
1164 835 358 150 762 203 1207 160z m1055 -184 c39 -19 70 -38 70 -40 0 -5
-139 62 -149 71 -13 12 18 0 79 -31z m412 -209 c8 7 295 -281 403 -406 22 -25
41 -44 42 -42 10 8 147 -160 215 -262 92 -141 297 -545 352 -696 83 -230 96
-273 120 -402 77 -403 46 -788 -99 -1230 -80 -242 -151 -384 -288 -573 -67
-92 -262 -303 -331 -358 -22 -17 5 13 60 68 122 124 249 308 363 533 46 89
124 301 166 446 68 236 86 363 92 631 6 279 -9 431 -68 663 -46 182 -96 301
-174 417 -30 45 -55 89 -55 97 0 27 -22 78 -31 72 -5 -3 -6 1 -3 9 3 8 -1 21
-8 28 -28 29 -89 153 -84 171 3 14 -42 81 -151 226 -191 253 -202 267 -366
420 -127 119 -261 219 -401 297 -123 69 -67 47 88 -34 84 -44 156 -78 158 -75z
m-3643 -53 c-31 -38 -120 -124 -111 -106 16 30 103 123 114 123 6 0 4 -8 -3
-17z m4321 -958 c61 -127 113 -261 107 -278 -6 -18 -47 49 -134 220 -56 108
-83 172 -79 186 3 11 0 30 -5 41 -6 12 4 6 21 -14 18 -19 58 -89 90 -155z
m-4690 150 c-10 -28 -108 -175 -115 -175 -3 0 -5 4 -5 9 0 10 118 191 125 191
3 0 0 -11 -5 -25z m4974 -762 c84 -292 102 -614 55 -960 -33 -244 -117 -518
-236 -769 -45 -96 -348 -543 -359 -531 -9 9 55 124 146 264 266 403 421 872
437 1313 8 232 -28 559 -83 760 -25 92 -26 97 -9 68 8 -15 30 -80 49 -145z
m-5438 -49 c-37 -198 -50 -349 -49 -589 1 -338 31 -560 103 -757 64 -175 269
-568 340 -651 36 -41 36 -62 0 -25 -86 90 -265 351 -329 480 -49 100 -128 397
-158 594 -25 168 -25 538 1 679 31 173 99 415 112 402 2 -2 -7 -62 -20 -133z
m93 -1731 c56 -112 108 -186 207 -293 46 -49 58 -67 36 -51 -70 49 -171 182
-238 314 -35 70 -62 127 -59 127 2 0 27 -44 54 -97z m453 -513 c69 -96 122
-190 109 -190 -6 0 -13 9 -16 20 -11 35 -55 79 -149 149 -95 70 -146 118 -96
90 14 -8 47 -34 73 -58 27 -23 51 -41 54 -37 3 3 -11 27 -31 54 -20 27 -36 55
-36 61 0 7 -7 24 -16 39 -28 47 40 -34 108 -128z m4527 -26 c-58 -64 -332
-314 -424 -387 -97 -77 -98 -78 -50 -26 63 67 18 31 -105 -86 -182 -174 -326
-271 -585 -396 -314 -152 -533 -214 -874 -250 -174 -18 -564 -7 -721 21 -314
55 -550 133 -806 264 -263 136 -420 247 -628 445 -78 75 -187 170 -242 211
-54 41 -126 102 -159 134 -59 58 -59 58 -5 10 30 -28 117 -92 193 -143 75 -51
137 -97 137 -102 0 -16 142 -160 223 -225 235 -190 619 -386 918 -468 286 -78
573 -111 884 -103 457 14 767 87 1132 271 220 110 327 182 508 341 96 84 222
180 236 180 11 0 206 165 299 254 86 81 114 103 69 55z m-238 -48 c-9 -11 -9
-15 1 -19 8 -4 7 -6 -4 -6 -10 -1 -18 -7 -18 -14 0 -8 -11 -24 -25 -37 -14
-13 -25 -19 -25 -14 1 11 68 104 76 104 4 0 1 -6 -5 -14z m60 -28 c-29 -42
-228 -224 -237 -215 -7 6 96 142 106 140 5 -1 23 11 42 28 50 47 102 89 110
89 4 0 -6 -19 -21 -42z m-571 -322 c0 -2 -8 -10 -17 -17 -16 -13 -17 -12 -4 4
13 16 21 21 21 13z m-110 -86 c-53 -44 -300 -190 -435 -258 -201 -100 -470
-175 -730 -203 -149 -17 -462 -6 -615 21 -341 59 -660 176 -955 349 -92 54
-76 52 28 -3 117 -64 356 -168 479 -209 144 -49 237 -72 424 -104 271 -47 585
-35 954 38 268 53 558 179 810 353 75 52 90 58 40 16z"/>
<path d="M4840 7685 c-8 -2 -66 -11 -128 -21 -62 -9 -111 -19 -108 -21 2 -3
53 4 113 14 154 26 529 25 698 -1 521 -80 935 -278 1330 -636 142 -128 297
-311 416 -489 51 -77 69 -98 69 -80 0 32 -85 156 -213 309 -441 530 -1022 848
-1679 919 -86 10 -459 14 -498 6z"/>
<path d="M4530 7630 c-20 -6 -21 -8 -5 -8 11 0 31 4 45 8 20 6 21 8 5 8 -11 0
-31 -4 -45 -8z"/>
<path d="M4478 7613 c7 -3 16 -2 19 1 4 3 -2 6 -13 5 -11 0 -14 -3 -6 -6z"/>
<path d="M4415 7600 c-13 -5 -14 -9 -5 -9 8 0 24 4 35 9 13 5 14 9 5 9 -8 0
-24 -4 -35 -9z"/>
<path d="M4821 7585 c-365 -47 -764 -206 -1061 -423 -566 -415 -922 -996
-1016 -1660 -17 -123 -20 -447 -4 -581 22 -190 116 -541 141 -525 5 3 6 -1 3
-9 -9 -23 91 -231 179 -372 394 -635 1096 -1085 1819 -1164 124 -14 398 -14
508 -1 255 32 545 117 765 224 431 210 741 518 1005 995 303 549 389 1101 258
1666 -37 162 -130 410 -153 410 -5 0 -16 4 -22 8 -17 11 -16 -4 1 -29 22 -31
82 -195 115 -314 59 -208 75 -341 76 -595 0 -258 -13 -356 -82 -595 -106 -372
-329 -766 -588 -1040 -317 -335 -663 -538 -1090 -640 -236 -57 -295 -64 -530
-64 -247 0 -355 13 -578 69 -726 183 -1348 722 -1651 1433 -71 166 -128 396
-147 591 -16 161 -6 464 20 616 95 559 383 1049 842 1435 64 53 137 111 163
129 26 18 44 37 40 43 -4 7 -2 8 4 4 6 -4 55 20 109 52 127 77 193 109 333
165 143 57 352 112 505 132 148 19 411 19 559 0 343 -45 734 -192 1025 -387
168 -112 399 -323 539 -493 86 -104 224 -298 250 -352 30 -61 42 -67 42 -20 0
40 -6 50 -111 194 -314 429 -572 663 -942 852 -220 112 -440 184 -706 232
-154 27 -459 34 -620 14z"/>
<path d="M4300 7560 c-8 -5 -10 -10 -5 -10 6 0 17 5 25 10 8 5 11 10 5 10 -5
0 -17 -5 -25 -10z"/>
<path d="M4220 7530 c-8 -5 -10 -10 -5 -10 6 0 17 5 25 10 8 5 11 10 5 10 -5
0 -17 -5 -25 -10z"/>
<path d="M4855 7493 c-350 -41 -643 -141 -937 -319 -121 -74 -293 -203 -392
-295 -310 -288 -556 -702 -661 -1114 -55 -213 -68 -342 -62 -605 7 -307 33
-453 123 -688 173 -449 507 -862 916 -1133 131 -87 354 -203 485 -253 313
-119 643 -171 933 -147 353 30 644 116 934 277 298 164 620 477 808 784 345
563 453 1153 313 1710 -51 201 -125 389 -225 572 -193 349 -478 652 -819 868
-105 66 -337 178 -452 218 -129 46 -359 100 -492 117 -106 13 -387 19 -472 8z
m273 -969 c162 -33 300 -112 423 -240 125 -131 193 -254 289 -524 73 -206 71
-202 159 -333 132 -196 240 -447 305 -704 51 -202 68 -326 73 -548 6 -225 -3
-345 -39 -567 l-23 -137 -50 -6 c-178 -20 -550 -37 -925 -42 -434 -6 -644 1
-1065 32 -104 8 -223 15 -263 16 -65 2 -71 3 -60 18 7 9 65 77 128 151 147
171 406 494 552 685 151 199 312 486 344 615 11 44 15 92 12 155 -3 79 -8 98
-38 153 -65 122 -195 215 -410 295 -111 41 -196 60 -375 82 -141 17 -195 31
-289 75 -33 15 -87 34 -118 41 -37 8 -58 17 -58 26 0 25 100 61 205 73 151 18
250 37 290 56 40 19 75 61 95 114 8 19 37 86 67 149 47 101 61 122 135 195 93
92 189 147 300 171 86 18 243 18 336 -1z m-1566 -610 c-72 -144 -131 -290
-151 -371 -21 -90 -30 -110 -60 -137 -20 -18 -21 -28 -21 -278 0 -145 4 -258
9 -258 5 0 11 -6 14 -12 3 -7 35 -79 70 -160 36 -82 61 -148 56 -148 -11 0
-82 90 -147 184 l-47 68 0 317 0 316 51 85 c27 47 97 173 155 281 103 195 147
264 71 113z m3066 -66 c27 -51 81 -144 121 -206 l71 -114 0 -291 0 -291 -92
-135 c-50 -75 -95 -140 -100 -146 -5 -5 25 56 66 136 l76 146 0 264 c0 211 -3
269 -14 285 -8 11 -31 64 -51 119 -21 55 -56 141 -77 190 -74 167 -74 181 0
43z"/>
<path d="M4780 6043 c-95 -48 -64 -173 42 -173 30 0 46 7 69 29 38 38 39 80 2
120 -36 39 -69 46 -113 24z"/>
<path d="M3746 7270 c-407 -277 -786 -740 -954 -1165 -79 -200 -140 -448 -163
-665 -19 -178 -7 -505 24 -675 45 -242 108 -429 213 -635 141 -273 397 -588
664 -813 272 -230 654 -425 1012 -517 226 -57 358 -74 593 -74 215 0 330 11
520 51 514 107 1030 425 1345 828 34 44 69 84 76 88 14 8 10 27 -5 27 -5 0
-44 -44 -87 -97 -116 -144 -206 -235 -336 -340 -291 -233 -562 -371 -902 -458
-223 -57 -331 -70 -606 -70 -266 0 -352 10 -578 65 -351 86 -703 259 -982 484
-147 118 -387 367 -512 531 -220 290 -373 689 -419 1094 -17 155 -6 514 20
664 64 359 174 640 366 927 111 166 194 269 345 424 128 132 270 253 391 333
61 41 76 53 66 53 -2 0 -43 -27 -91 -60z"/>
<path d="M7250 6381 c0 -13 29 -35 37 -28 7 8 -15 37 -28 37 -5 0 -9 -4 -9 -9z"/>
<path d="M7310 6260 c-8 -32 -6 -40 6 -40 16 0 100 -172 144 -297 103 -291
141 -676 97 -988 -45 -316 -200 -712 -424 -1084 -36 -60 -39 -71 -20 -71 14 1
151 243 231 410 108 226 196 499 232 716 25 149 25 454 1 619 -34 226 -91 422
-173 590 -38 79 -91 160 -94 145z"/>
<path d="M3090 3412 c0 -17 89 -129 141 -178 30 -27 88 -70 129 -94 41 -24
103 -63 136 -87 34 -23 77 -46 95 -49 29 -5 23 1 -39 40 -41 25 -86 56 -101
68 -16 13 -61 50 -102 83 -41 33 -113 97 -160 142 -83 80 -99 92 -99 75z"/>
<path d="M3588 2983 c7 -3 16 -2 19 1 4 3 -2 6 -13 5 -11 0 -14 -3 -6 -6z"/>
<path d="M7446 6487 c3 -10 9 -15 12 -12 3 3 0 11 -7 18 -10 9 -11 8 -5 -6z"/>
<path d="M7039 3123 l-24 -28 28 24 c15 14 27 26 27 28 0 8 -8 1 -31 -24z"/>
<path d="M3925 8110 c3 -5 8 -10 11 -10 2 0 4 5 4 10 0 6 -5 10 -11 10 -5 0
-7 -4 -4 -10z"/>
<path d="M3890 8100 c-9 -6 -10 -10 -3 -10 6 0 15 5 18 10 8 12 4 12 -15 0z"/>
<path d="M6320 8096 c14 -9 32 -15 40 -15 13 0 13 1 0 8 -8 5 -26 12 -40 15
l-25 7 25 -15z"/>
<path d="M3835 8070 c3 -5 8 -10 11 -10 2 0 4 5 4 10 0 6 -5 10 -11 10 -5 0
-7 -4 -4 -10z"/>
<path d="M6418 8048 c-4 -9 6 -14 31 -15 19 -1 37 -7 39 -12 4 -13 22 -15 22
-2 0 5 -12 14 -27 19 -16 5 -35 13 -44 17 -10 3 -19 1 -21 -7z"/>
<path d="M3760 8013 c13 -18 25 -33 27 -33 8 0 -17 38 -33 51 -11 9 -9 2 6
-18z"/>
<path d="M6529 8011 c8 -6 11 -17 6 -32 l-7 -24 17 24 c15 19 15 25 4 32 -8 5
-18 9 -24 9 -5 0 -4 -4 4 -9z"/>
<path d="M3670 7994 c0 -6 7 -19 16 -30 14 -18 14 -18 3 6 -14 31 -19 36 -19
24z"/>
<path d="M6577 7984 c6 -15 23 -19 23 -5 0 5 -7 11 -14 14 -10 4 -13 1 -9 -9z"/>
<path d="M3590 7965 c0 -5 12 -23 26 -40 14 -16 21 -21 15 -10 -14 30 -40 61
-41 50z"/>
<path d="M6614 7953 c-3 -10 -10 -28 -15 -41 -16 -41 -9 -38 16 7 28 49 29 51
15 51 -6 0 -13 -8 -16 -17z"/>
<path d="M3559 7933 c-13 -16 -12 -17 4 -4 9 7 17 15 17 17 0 8 -8 3 -21 -13z"/>
<path d="M6511 7919 c-6 -18 -9 -34 -7 -36 2 -2 9 10 15 28 6 18 9 34 7 36 -2
2 -9 -10 -15 -28z"/>
<path d="M3513 7919 c-8 -8 -7 -16 3 -28 7 -9 21 -25 30 -36 9 -12 8 -6 -4 15
-11 19 -17 41 -15 48 6 15 0 15 -14 1z"/>
<path d="M6688 7887 c-15 -34 -15 -38 -2 -22 25 32 35 53 26 58 -4 3 -15 -14
-24 -36z"/>
<path d="M3716 7907 c3 -10 9 -15 12 -12 3 3 0 11 -7 18 -10 9 -11 8 -5 -6z"/>
<path d="M3397 7849 c-21 -17 -42 -27 -49 -23 -6 4 4 -14 22 -40 44 -60 61
-72 24 -16 l-28 42 23 19 c34 28 48 24 77 -21 15 -22 28 -40 31 -40 5 0 -16
39 -38 71 -10 14 -16 29 -12 33 3 3 2 6 -3 6 -5 0 -26 -14 -47 -31z"/>
<path d="M6776 7871 c-3 -4 -10 -21 -16 -37 -10 -28 -9 -28 6 -9 26 33 36 55
25 55 -5 0 -12 -4 -15 -9z"/>
<path d="M6852 7818 c-6 -13 -21 -38 -32 -55 -31 -46 -21 -41 24 13 24 29 35
49 29 55 -6 6 -14 1 -21 -13z"/>
<path d="M6910 7790 c0 -5 5 -10 11 -10 5 0 7 5 4 10 -3 6 -8 10 -11 10 -2 0
-4 -4 -4 -10z"/>
<path d="M3259 7764 c-11 -13 -10 -15 5 -12 10 2 32 -14 57 -42 l40 -45 -38
57 c-21 32 -41 57 -44 58 -4 0 -12 -7 -20 -16z"/>
<path d="M6924 7747 c-43 -67 -57 -92 -48 -82 21 20 84 102 84 109 0 15 -17 3
-36 -27z"/>
<path d="M3202 7728 c-7 -10 4 -28 40 -68 l50 -55 -40 54 c-22 30 -38 60 -35
68 6 16 -1 17 -15 1z"/>
<path d="M6995 7703 l-17 -28 23 22 c12 12 20 25 17 28 -3 3 -13 -7 -23 -22z"/>
<path d="M7046 7658 c-14 -18 -23 -34 -20 -37 4 -5 27 21 45 52 16 28 2 20
-25 -15z"/>
<path d="M3120 7663 c0 -5 21 -30 46 -58 44 -48 42 -41 -9 32 -21 31 -37 42
-37 26z"/>
<path d="M7122 7615 c-12 -15 -20 -30 -18 -32 7 -8 47 38 44 49 -2 6 -14 -1
-26 -17z"/>
<path d="M3053 7617 c-22 -12 -22 -13 18 -57 l40 -45 -32 43 c-32 41 -32 43
-13 57 23 18 17 19 -13 2z"/>
<path d="M7190 7565 c-7 -8 -8 -15 -2 -15 5 0 15 7 22 15 7 8 8 15 2 15 -5 0
-15 -7 -22 -15z"/>
<path d="M2965 7549 c-4 -6 -5 -12 -2 -15 7 -7 37 7 37 17 0 13 -27 11 -35 -2z"/>
<path d="M7253 7470 c-21 -24 -27 -37 -18 -37 8 0 13 3 10 5 -9 9 17 32 28 25
5 -3 7 -1 3 5 -3 6 -2 13 4 17 5 3 10 1 10 -4 0 -6 5 -11 10 -11 14 0 12 27
-2 32 -7 3 -27 -12 -45 -32z"/>
<path d="M2908 7493 c-2 -5 23 -33 56 -63 l60 -55 -47 54 c-26 29 -47 57 -47
62 0 11 -17 12 -22 2z"/>
<path d="M2840 7438 c-15 -20 -13 -24 37 -71 29 -28 56 -48 59 -45 2 3 -10 18
-28 33 -18 15 -33 33 -33 39 0 6 -6 12 -12 12 -23 3 -24 4 -13 25 15 28 9 32
-10 7z"/>
<path d="M7325 7393 c-62 -71 -63 -83 -4 -28 29 28 56 51 58 53 3 1 0 6 -5 11
-5 6 -25 -9 -49 -36z"/>
<path d="M2770 7376 c-10 -13 -10 -19 0 -31 7 -8 16 -12 21 -9 5 3 9 -1 9 -8
0 -7 13 -22 28 -32 l27 -19 -22 24 c-12 13 -28 39 -36 57 -12 29 -15 31 -27
18z"/>
<path d="M7390 7293 l-55 -56 58 46 c33 26 63 47 69 47 5 0 6 5 3 10 -11 17
-19 12 -75 -47z"/>
<path d="M2695 7290 c-3 -5 -1 -10 5 -10 6 0 37 -23 68 -52 l57 -52 -60 62
c-33 34 -60 62 -62 62 -1 0 -5 -4 -8 -10z"/>
<path d="M7506 7289 c3 -6 -15 -31 -42 -55 l-49 -44 58 41 c45 33 55 45 46 55
-14 17 -23 19 -13 3z"/>
<path d="M2620 7213 c0 -4 25 -28 55 -51 30 -24 55 -41 55 -39 0 3 -25 26 -55
52 -30 25 -55 43 -55 38z"/>
<path d="M7520 7164 c-30 -26 -57 -51 -59 -56 -2 -6 22 10 53 36 39 31 61 43
74 39 15 -6 15 -5 3 10 -7 9 -14 17 -15 17 0 0 -26 -21 -56 -46z"/>
<path d="M2555 7130 c-3 -5 7 -17 22 -27 15 -9 46 -30 68 -46 36 -26 37 -27
10 -2 -16 14 -44 39 -62 55 -18 16 -35 25 -38 20z"/>
<path d="M7575 7094 l-50 -46 53 37 c45 32 55 35 69 24 15 -13 15 -12 2 9 -8
12 -16 22 -19 22 -3 0 -28 -21 -55 -46z"/>
<path d="M2490 7050 c0 -5 5 -10 11 -10 7 0 34 -16 60 -35 27 -19 49 -33 49
-30 0 5 -107 85 -115 85 -3 0 -5 -4 -5 -10z"/>
<path d="M7659 7032 c-19 -15 -46 -35 -60 -45 -13 -10 -4 -6 21 8 25 14 55 31
68 37 12 6 22 15 22 20 0 13 -13 8 -51 -20z"/>
<path d="M2440 6983 c1 -4 26 -26 57 -48 75 -53 83 -57 83 -48 -1 4 -26 26
-57 48 -75 53 -83 57 -83 48z"/>
<path d="M7692 6938 c-35 -22 -61 -43 -58 -46 3 -3 25 8 48 23 23 15 52 30 64
34 14 4 20 10 16 17 -5 8 -28 -2 -70 -28z"/>
<path d="M2380 6891 c0 -5 7 -11 14 -14 10 -4 13 -1 9 9 -6 15 -23 19 -23 5z"/>
<path d="M7738 6857 c-72 -51 -69 -60 5 -13 30 19 57 32 61 29 3 -4 6 1 6 10
0 23 -7 21 -72 -26z"/>
<path d="M7450 6851 c0 -5 5 -13 10 -16 6 -3 10 -2 10 4 0 5 -4 13 -10 16 -5
3 -10 2 -10 -4z"/>
<path d="M2457 6839 c6 -8 26 -22 45 -32 l33 -19 -25 21 c-14 12 -34 27 -45
33 -17 9 -18 9 -8 -3z"/>
<path d="M2336 6814 c-8 -21 -8 -21 10 -28 8 -3 12 -2 9 4 -3 6 -2 10 4 10 5
0 12 -3 15 -8 5 -9 96 -75 96 -69 0 2 -29 27 -64 55 -50 40 -65 48 -70 36z"/>
<path d="M7845 6810 c-3 -5 -1 -10 4 -10 6 0 11 5 11 10 0 6 -2 10 -4 10 -3 0
-8 -4 -11 -10z"/>
<path d="M7794 6784 c-18 -14 -18 -14 6 -3 31 14 36 19 24 19 -6 0 -19 -7 -30
-16z"/>
<path d="M7826 6727 c-33 -18 -62 -39 -64 -45 -2 -7 20 4 49 23 30 19 59 35
66 35 6 0 15 5 18 10 11 17 -8 11 -69 -23z"/>
<path d="M2290 6731 c0 -5 7 -12 16 -15 14 -5 15 -4 4 9 -14 17 -20 19 -20 6z"/>
<path d="M2330 6706 c0 -2 8 -10 18 -17 15 -13 16 -12 3 4 -13 16 -21 21 -21
13z"/>
<path d="M2370 6677 c0 -3 12 -12 26 -22 15 -9 23 -12 20 -6 -7 11 -46 35 -46
28z"/>
<path d="M7875 6654 c-80 -42 -87 -58 -10 -23 75 33 99 49 74 49 -8 0 -37 -12
-64 -26z"/>
<path d="M2246 6661 c-3 -4 6 -13 20 -20 35 -16 40 -14 19 9 -20 22 -31 25
-39 11z"/>
<path d="M7955 6600 c-3 -6 -27 -22 -53 -36 -26 -14 -38 -22 -27 -18 97 33
114 40 112 48 -5 15 -24 18 -32 6z"/>
<path d="M2210 6589 c0 -5 9 -9 20 -9 11 0 20 2 20 4 0 2 -9 6 -20 9 -11 3
-20 1 -20 -4z"/>
<path d="M2327 6539 c7 -7 15 -10 18 -7 3 3 -2 9 -12 12 -14 6 -15 5 -6 -5z"/>
<path d="M7953 6490 c-76 -35 -83 -48 -10 -18 28 11 60 21 70 22 9 0 17 6 17
13 0 17 -5 16 -77 -17z"/>
<path d="M2175 6501 c-2 -5 10 -11 28 -14 42 -6 45 -2 8 11 -17 6 -33 7 -36 3z"/>
<path d="M2270 6465 c0 -2 10 -10 23 -16 20 -11 21 -11 8 4 -13 16 -31 23 -31
12z"/>
<path d="M8037 6436 c-3 -7 -33 -23 -66 -36 -34 -12 -59 -25 -57 -28 7 -6 156
51 156 59 0 13 -29 17 -33 5z"/>
<path d="M2140 6429 c25 -17 130 -70 130 -65 0 5 -128 76 -138 76 -4 0 0 -5 8
-11z"/>
<path d="M2104 6335 c11 -8 24 -15 30 -15 5 0 1 7 -10 15 -10 8 -23 14 -29 14
-5 0 -1 -6 9 -14z"/>
<path d="M8022 6315 c-39 -19 -72 -36 -72 -39 0 -4 141 53 149 60 2 2 2 6 0 8
-2 3 -37 -11 -77 -29z"/>
<path d="M2183 6299 c22 -11 41 -18 44 -15 5 5 -62 36 -76 36 -3 -1 11 -10 32
-21z"/>
<path d="M2416 6263 c-6 -14 -5 -15 5 -6 7 7 10 15 7 18 -3 3 -9 -2 -12 -12z"/>
<path d="M2060 6255 c0 -9 6 -12 15 -9 8 4 26 -1 40 -10 28 -19 75 -38 75 -31
0 5 -115 65 -125 65 -3 0 -5 -7 -5 -15z"/>
<path d="M8057 6223 c-37 -14 -66 -27 -64 -29 5 -6 147 41 147 49 0 10 -7 9
-83 -20z"/>
<path d="M2032 6164 c3 -3 0 -25 -8 -50 -7 -24 -9 -44 -5 -44 11 0 31 46 31
71 0 17 4 19 23 13 45 -14 51 -14 22 0 -29 15 -74 22 -63 10z"/>
<path d="M8128 6156 c-54 -16 -56 -25 -3 -13 25 6 45 14 45 19 0 4 -1 8 -2 7
-2 -1 -20 -6 -40 -13z"/>
<path d="M2070 6071 c0 -9 30 -24 36 -18 2 1 -6 8 -16 15 -11 7 -20 8 -20 3z"/>
<path d="M8130 6060 c-18 -12 -2 -12 25 0 13 6 15 9 5 9 -8 0 -22 -4 -30 -9z"/>
<path d="M8075 5820 c3 -19 17 -96 31 -170 73 -394 70 -635 -15 -1051 -16 -79
-28 -146 -26 -148 7 -6 64 191 89 303 29 129 46 273 46 383 0 94 -32 346 -60
475 -22 100 -73 266 -65 208z"/>
<path d="M1564 5425 c-154 -157 -283 -294 -288 -304 -11 -26 -12 -26 302 -335
l272 -269 42 6 c22 3 50 15 61 26 20 19 20 21 3 138 -10 65 -20 180 -23 256
-3 75 -9 137 -12 137 -4 0 -27 -27 -51 -61 -25 -33 -67 -89 -93 -125 -54 -72
-82 -82 -82 -28 0 25 -11 40 -62 83 -35 28 -63 56 -63 61 0 6 -16 28 -35 49
l-36 39 49 54 c27 29 63 69 80 88 l30 35 7 -27 c10 -41 0 -60 -60 -103 -62
-44 -64 -31 20 -125 22 -25 52 -61 66 -80 l26 -35 46 50 c26 28 46 54 47 58 0
4 9 17 20 29 28 30 25 38 -12 37 -18 0 -27 -3 -20 -6 15 -6 15 -13 -3 -37 -13
-18 -15 -18 -42 1 -15 10 -41 25 -57 31 -39 17 -30 21 29 12 28 -4 52 -6 53
-5 2 2 6 23 8 47 9 74 14 89 35 96 18 7 17 11 -21 74 -22 37 -40 71 -40 76 0
5 -9 17 -20 27 -21 19 -22 17 -156 -116 -75 -74 -145 -147 -156 -163 l-21 -29
149 -143 c82 -79 163 -156 179 -171 21 -21 38 -28 58 -25 33 4 34 21 6 72
l-21 38 48 60 c27 33 53 61 57 61 5 1 -5 -24 -22 -54 -37 -64 -37 -73 -11
-118 25 -42 72 -197 65 -214 -10 -29 -46 -9 -116 64 -41 42 -94 95 -119 117
-124 114 -192 178 -264 249 l-79 78 59 62 c94 98 165 169 217 215 26 23 47 46
47 50 0 19 59 64 77 58 10 -3 25 -1 33 4 13 8 12 10 -2 10 -27 0 -23 10 38 83
87 104 108 84 50 -47 -23 -51 -28 -57 -48 -50 -17 5 -12 -5 25 -46 44 -49 67
-94 54 -106 -3 -3 -35 18 -71 46 -36 29 -66 47 -66 41 0 -7 7 -14 15 -17 9 -4
33 -36 55 -73 22 -36 52 -81 68 -100 l29 -35 7 125 c4 68 14 168 22 221 12 78
13 102 3 120 -18 33 -40 47 -75 48 -28 0 -61 -31 -310 -285z m209 -113 c28
-36 28 -37 8 -40 -23 -4 -26 -13 -10 -29 6 -6 8 -16 5 -22 -12 -19 -24 -12
-31 18 -5 24 -13 30 -42 36 l-36 6 34 35 c18 19 35 34 38 34 4 -1 19 -17 34
-38z m-53 -72 c0 -5 -4 -10 -9 -10 -6 0 -13 5 -16 10 -3 6 1 10 9 10 9 0 16
-4 16 -10z m25 -430 c3 -5 2 -10 -4 -10 -5 0 -13 5 -16 10 -3 6 -2 10 4 10 5
0 13 -4 16 -10z"/>
<path d="M8305 5698 c-11 -6 -21 -12 -23 -13 -2 -2 4 -34 13 -71 10 -39 20
-140 23 -233 5 -107 11 -166 18 -168 6 -2 24 20 39 49 39 74 71 124 95 146
l21 20 -35 4 c-29 3 -35 1 -31 -12 3 -9 -13 -39 -35 -69 -22 -29 -40 -47 -40
-40 0 16 63 143 81 166 11 12 10 17 -3 24 -17 9 -61 79 -78 123 -14 38 14 34
54 -7 41 -43 76 -86 76 -93 0 -3 11 -15 25 -26 14 -11 25 -25 25 -33 0 -9 7
-11 22 -7 18 4 20 2 16 -16 -5 -16 3 -28 31 -48 62 -47 280 -272 268 -278 -7
-2 -5 -5 4 -5 9 -1 22 -8 30 -17 11 -13 -5 -32 -112 -140 -68 -69 -133 -127
-144 -130 -11 -3 -33 -23 -48 -45 -16 -21 -51 -58 -79 -82 -28 -23 -70 -59
-94 -80 -32 -29 -48 -37 -64 -32 -28 9 -25 35 10 105 17 33 27 60 23 61 -5 0
-1 3 8 7 9 4 38 27 64 51 56 52 58 45 -45 184 -101 137 -106 134 -106 -50 1
-125 -11 -258 -29 -349 -5 -23 21 -40 83 -54 31 -8 38 -4 90 42 32 28 62 56
67 62 6 6 62 58 125 115 150 136 340 320 340 329 0 4 -137 145 -303 315 -265
270 -306 307 -332 307 -16 0 -39 -6 -50 -12z m110 -762 c44 -62 54 -86 36 -86
-11 0 -101 133 -101 149 0 20 18 3 65 -63z"/>
<path d="M8473 5347 c-85 -88 -113 -130 -97 -144 10 -10 17 -8 33 13 l20 26
30 -21 c28 -20 29 -23 17 -52 -15 -36 -38 -65 -57 -71 -11 -4 -8 -14 11 -44
14 -21 32 -51 39 -66 8 -15 25 -37 37 -49 l24 -22 57 53 c32 29 68 64 81 77
25 25 62 31 62 9 0 -8 -36 -51 -80 -96 -52 -53 -77 -86 -73 -96 3 -10 -9 -28
-36 -50 -48 -41 -51 -54 -15 -54 25 0 78 33 69 42 -3 3 36 48 86 101 93 99
144 159 160 189 8 14 2 19 -31 29 -22 7 -40 17 -40 23 0 14 -170 196 -215 230
l-32 25 -50 -52z m74 -19 c4 -21 32 -59 85 -114 43 -44 78 -84 78 -88 0 -12
-41 -6 -66 10 -14 9 -36 37 -51 61 -17 29 -31 42 -40 39 -11 -5 -13 -1 -8 15
7 20 4 21 -21 15 -64 -16 -84 -18 -84 -9 0 14 79 103 91 103 5 0 12 -14 16
-32z m-8 -267 c12 -8 12 -13 -3 -35 -9 -14 -20 -26 -24 -26 -10 0 -62 53 -62
63 0 10 73 8 89 -2z"/>
<path d="M2082 4295 c-41 -7 -75 -15 -78 -17 -2 -2 1 -17 5 -34 8 -23 9 -25
10 -7 1 17 12 25 55 37 30 9 59 16 64 16 6 0 14 5 17 10 3 6 5 10 3 9 -2 0
-36 -7 -76 -14z"/>
<path d="M8110 4282 c41 -9 77 -14 79 -9 5 13 -1 15 -79 21 l-75 6 75 -18z"/>
<path d="M8161 4229 c-5 -13 -12 -32 -15 -41 -4 -15 -15 -17 -63 -14 l-58 4
47 -16 c26 -10 49 -20 52 -23 4 -3 -1 -23 -9 -43 -17 -41 -24 -41 -97 -5 -30
16 -38 17 -38 5 0 -11 41 -35 75 -43 6 -1 19 -5 30 -8 18 -6 25 5 57 97 20 56
35 104 33 107 -2 2 -9 -7 -14 -20z"/>
<path d="M2020 4205 c0 -5 5 -17 10 -25 5 -8 10 -10 10 -5 0 6 -5 17 -10 25
-5 8 -10 11 -10 5z"/>
<path d="M2110 4178 c-73 -23 -74 -23 -66 -36 3 -5 27 1 53 13 27 12 59 27 73
33 39 17 11 12 -60 -10z"/>
<path d="M2141 4084 c-69 -26 -77 -31 -69 -39 3 -3 38 10 79 30 86 40 82 45
-10 9z"/>
<path d="M8071 4000 c-5 -16 -13 -30 -16 -30 -3 0 -28 12 -56 26 -28 14 -53
24 -55 22 -2 -2 25 -18 61 -36 l64 -31 6 29 c4 17 11 30 16 30 5 0 9 5 9 10 0
21 -19 8 -29 -20z"/>
<path d="M2178 3991 c-37 -14 -68 -29 -68 -33 0 -15 25 -7 90 27 77 40 70 42
-22 6z"/>
<path d="M2107 3989 c7 -7 15 -10 18 -7 3 3 -2 9 -12 12 -14 6 -15 5 -6 -5z"/>
<path d="M7920 3945 c0 -3 23 -16 51 -31 43 -21 50 -29 45 -47 -5 -21 -5 -21
9 -3 22 29 19 34 -22 52 -65 27 -83 34 -83 29z"/>
<path d="M2246 3925 c-25 -19 -9 -19 24 0 14 8 19 14 10 14 -8 0 -24 -6 -34
-14z"/>
<path d="M8045 3929 c-4 -6 -5 -12 -2 -15 2 -3 7 2 10 11 7 17 1 20 -8 4z"/>
<path d="M2187 3899 c-9 -6 -27 -7 -38 -4 -20 7 -20 6 -4 -19 19 -28 27 -33
23 -14 -2 6 7 17 20 23 12 7 25 15 29 19 10 10 -10 7 -30 -5z"/>
<path d="M2245 3827 c-44 -17 -72 -33 -63 -35 15 -3 148 54 148 64 0 5 7 8
-85 -29z"/>
<path d="M7925 3827 c38 -20 70 -35 71 -34 1 1 5 13 8 27 6 19 5 21 -3 10 -9
-13 -16 -12 -58 4 -84 32 -90 30 -18 -7z"/>
<path d="M2295 3750 c-27 -17 -54 -31 -60 -34 -5 -2 -7 -6 -3 -10 8 -10 67 21
97 50 30 30 27 30 -34 -6z"/>
<path d="M7840 3771 c0 -12 109 -65 117 -57 8 7 11 5 -59 39 -32 15 -58 23
-58 18z"/>
<path d="M2346 3675 c-38 -19 -73 -32 -78 -29 -9 6 -11 -9 -2 -19 5 -5 127 56
149 75 14 13 5 9 -69 -27z"/>
<path d="M7794 3692 c4 -7 21 -19 39 -28 17 -9 39 -26 49 -38 15 -18 19 -19
28 -6 12 19 13 33 0 25 -5 -3 -35 9 -66 27 -32 17 -54 27 -50 20z"/>
<path d="M2368 3584 c-27 -13 -48 -29 -48 -34 0 -14 2 -13 54 16 79 44 74 60
-6 18z"/>
<path d="M7775 3603 c29 -27 87 -64 92 -59 4 3 4 7 2 9 -14 11 -102 58 -94 50z"/>
<path d="M2448 3530 c-27 -17 -52 -30 -58 -30 -12 0 -33 -40 -25 -48 4 -4 11
1 17 11 5 10 37 36 71 58 33 21 56 39 51 39 -5 0 -30 -14 -56 -30z"/>
<path d="M7700 3546 c0 -3 19 -18 43 -33 23 -15 48 -34 55 -42 9 -11 15 -12
23 -4 8 8 5 14 -12 23 -13 7 -43 24 -66 37 -24 14 -43 22 -43 19z"/>
<path d="M2478 3447 c-36 -28 -64 -55 -62 -59 7 -11 31 4 84 51 25 23 48 41
53 41 4 0 7 5 7 10 0 17 -13 10 -82 -43z"/>
<path d="M7640 3476 c0 -11 122 -97 128 -91 4 4 1 10 -6 12 -7 3 -35 22 -62
44 -47 37 -60 45 -60 35z"/>
<path d="M2561 3373 c-29 -21 -62 -43 -72 -49 -17 -10 -17 -13 -4 -30 10 -12
13 -14 10 -3 -4 11 14 29 60 60 36 24 65 47 65 51 0 12 -1 11 -59 -29z"/>
<path d="M7633 3363 c14 -16 15 -22 5 -26 -7 -2 -1 -4 14 -3 16 0 28 1 28 2 0
0 -15 11 -32 24 -28 20 -30 21 -15 3z"/>
<path d="M7720 3350 c0 -5 5 -10 10 -10 6 0 10 5 10 10 0 6 -4 10 -10 10 -5 0
-10 -4 -10 -10z"/>
<path d="M2608 3274 c-51 -40 -71 -64 -52 -64 3 0 29 20 57 45 29 25 55 45 59
45 5 0 8 5 8 10 0 17 -13 10 -72 -36z"/>
<path d="M7533 3303 c5 -7 28 -24 53 -39 24 -14 44 -30 44 -35 0 -5 5 -9 10
-9 19 0 10 15 -23 36 -17 11 -45 29 -62 40 -16 10 -26 13 -22 7z"/>
<path d="M7660 3270 c0 -5 5 -10 10 -10 6 0 10 5 10 10 0 6 -4 10 -10 10 -5 0
-10 -4 -10 -10z"/>
<path d="M2668 3185 c-38 -30 -63 -57 -57 -60 5 -4 33 15 62 41 29 26 59 53
67 61 8 7 10 13 5 13 -6 0 -40 -25 -77 -55z"/>
<path d="M7470 3233 c0 -10 105 -93 117 -93 4 0 -2 8 -13 18 -12 9 -40 32 -63
50 -23 19 -41 30 -41 25z"/>
<path d="M2784 3156 c-5 -6 -35 -32 -65 -58 -29 -25 -50 -50 -46 -54 4 -5 35
20 69 54 34 34 60 63 58 66 -3 2 -10 -1 -16 -8z"/>
<path d="M7464 3116 c32 -31 61 -54 64 -52 4 5 -48 54 -96 89 -15 11 0 -6 32
-37z"/>
<path d="M2790 3041 c-36 -32 -63 -61 -60 -64 3 -3 37 24 75 59 39 35 66 64
60 64 -5 0 -39 -27 -75 -59z"/>
<path d="M7409 3025 c26 -25 52 -45 57 -45 10 0 -87 89 -98 90 -4 0 15 -20 41
-45z"/>
<path d="M2857 2973 c-37 -36 -65 -69 -62 -73 3 -4 35 23 72 61 36 38 64 71
62 73 -2 3 -35 -25 -72 -61z"/>
<path d="M7360 3026 c0 -2 8 -10 18 -17 15 -13 16 -12 3 4 -13 16 -21 21 -21
13z"/>
<path d="M7314 2955 c32 -30 62 -55 65 -55 3 0 12 10 20 23 13 20 13 21 -2 9
-13 -11 -24 -7 -72 32 -76 63 -83 57 -11 -9z"/>
<path d="M2924 2900 c-60 -58 -61 -60 -42 -77 14 -13 18 -13 13 -2 -3 9 16 38
51 77 71 79 58 80 -22 2z"/>
<path d="M7180 2930 c0 -5 4 -10 9 -10 5 0 35 -23 66 -51 30 -29 59 -49 62
-45 3 3 4 7 2 9 -2 1 -32 26 -66 55 -63 54 -73 59 -73 42z"/>
<path d="M3038 2875 c-10 -13 -18 -27 -18 -31 0 -3 -16 -24 -36 -46 -19 -22
-33 -42 -30 -45 3 -4 15 5 26 19 10 14 35 44 55 68 34 41 43 60 28 60 -5 0
-16 -11 -25 -25z"/>
<path d="M7365 2880 c-3 -5 -1 -10 4 -10 6 0 11 5 11 10 0 6 -2 10 -4 10 -3 0
-8 -4 -11 -10z"/>
<path d="M7120 2874 c0 -15 122 -126 129 -118 4 5 -23 35 -60 67 -38 32 -69
55 -69 51z"/>
<path d="M3130 2834 c0 -5 -25 -35 -55 -67 -30 -33 -52 -63 -49 -69 3 -5 13 1
22 14 8 13 33 45 55 71 22 26 37 51 33 54 -3 4 -6 2 -6 -3z"/>
<path d="M7105 2757 c48 -55 68 -71 79 -60 6 6 -79 90 -108 105 -11 6 2 -15
29 -45z"/>
<path d="M7270 2799 c0 -5 5 -7 10 -4 6 3 10 8 10 11 0 2 -4 4 -10 4 -5 0 -10
-5 -10 -11z"/>
<path d="M3141 2716 c-35 -35 -59 -66 -54 -69 5 -3 27 15 49 41 95 112 96 120
5 28z"/>
<path d="M7048 2690 c30 -33 58 -58 61 -55 5 6 -99 115 -110 115 -3 0 19 -27
49 -60z"/>
<path d="M7201 2724 c0 -11 3 -14 6 -6 3 7 2 16 -1 19 -3 4 -6 -2 -5 -13z"/>
<path d="M3208 2660 c-32 -38 -53 -72 -48 -75 6 -3 10 -2 10 2 0 5 25 39 55
76 31 37 52 67 48 66 -5 0 -34 -31 -65 -69z"/>
<path d="M3272 2614 c-29 -36 -50 -70 -46 -75 3 -6 28 22 56 61 28 39 48 73
46 75 -2 3 -28 -25 -56 -61z"/>
<path d="M6880 2656 c0 -26 97 -129 112 -120 5 3 -12 24 -38 47 -25 22 -52 50
-60 61 -8 11 -14 17 -14 12z"/>
<path d="M6996 2641 c-4 -5 5 -22 19 -38 13 -15 25 -23 25 -17 0 6 -7 17 -15
24 -8 7 -13 16 -10 20 3 5 1 11 -4 14 -5 4 -12 2 -15 -3z"/>
<path d="M3352 2558 c-29 -39 -50 -73 -47 -76 6 -6 16 6 72 86 55 79 35 71
-25 -10z"/>
<path d="M6800 2615 c0 -15 25 -53 59 -88 30 -31 33 -39 21 -47 -8 -5 -10 -10
-4 -10 5 0 19 7 30 15 16 12 17 14 2 15 -18 0 -88 76 -88 96 0 7 -4 16 -10 19
-5 3 -10 3 -10 0z"/>
<path d="M3522 2525 c-6 -14 -10 -25 -8 -25 2 0 11 11 20 25 9 14 13 25 8 25
-5 0 -14 -11 -20 -25z"/>
<path d="M6721 2518 c28 -53 62 -97 70 -92 5 3 9 0 9 -5 0 -6 5 -11 11 -11 5
0 -4 20 -22 45 -17 24 -37 42 -42 38 -6 -4 -8 0 -5 9 4 8 -2 20 -14 27 -18 11
-18 10 -7 -11z"/>
<path d="M6930 2520 c0 -5 5 -10 11 -10 5 0 7 5 4 10 -3 6 -8 10 -11 10 -2 0
-4 -4 -4 -10z"/>
<path d="M3400 2480 c-17 -22 -29 -40 -25 -40 8 0 41 37 56 63 17 30 2 19 -31
-23z"/>
<path d="M6630 2503 c0 -5 18 -32 40 -60 26 -35 37 -59 33 -70 -5 -13 -2 -15
11 -10 10 4 20 7 22 7 2 0 -16 27 -41 61 -25 34 -45 65 -45 70 0 5 -4 9 -10 9
-5 0 -10 -3 -10 -7z"/>
<path d="M6561 2467 c-1 -10 26 -53 56 -90 28 -35 29 -47 2 -47 -11 0 -17 -4
-14 -10 8 -13 18 -13 38 3 16 11 15 16 -20 64 -21 28 -43 59 -50 70 -6 10 -12
14 -12 10z"/>
<path d="M6490 2424 c0 -11 83 -145 87 -140 3 2 -14 36 -37 75 -37 65 -50 81
-50 65z"/>
<path d="M3615 2391 c-19 -38 -54 -50 -71 -26 -8 10 -11 22 -8 26 10 16 -13 9
-27 -8 -12 -15 -12 -16 4 -10 11 4 17 2 17 -7 0 -7 11 -18 25 -24 15 -7 25 -8
25 -2 0 6 5 10 11 10 6 0 9 -7 5 -15 -3 -8 -2 -15 2 -15 6 0 42 100 36 100 -2
0 -10 -13 -19 -29z"/>
<path d="M6431 2338 c36 -62 58 -88 73 -88 6 0 3 5 -6 10 -9 6 -31 35 -48 65
-17 30 -36 57 -41 60 -5 4 5 -18 22 -47z"/>
<path d="M3890 2363 c0 -5 14 -8 31 -9 20 -1 26 2 17 7 -16 11 -48 12 -48 2z"/>
<path d="M6300 2356 c0 -2 7 -7 16 -10 8 -3 12 -2 9 4 -6 10 -25 14 -25 6z"/>
<path d="M3760 2299 c-12 -23 -20 -43 -18 -45 3 -2 14 17 26 41 27 56 20 60
-8 4z"/>
<path d="M3672 2308 c-14 -14 -16 -28 -3 -28 9 0 24 30 18 36 -2 2 -9 -2 -15
-8z"/>
<path d="M6340 2307 c0 -13 51 -109 56 -105 2 3 -9 29 -26 59 -16 30 -30 50
-30 46z"/>
<path d="M3856 2263 c-6 -14 -5 -15 5 -6 7 7 10 15 7 18 -3 3 -9 -2 -12 -12z"/>
<path d="M6421 2265 c1 -19 18 -51 18 -35 0 8 -4 22 -9 30 -5 8 -9 11 -9 5z"/>
<path d="M4454 2207 c29 -29 93 -106 141 -172 96 -131 255 -335 375 -485 42
-52 89 -114 105 -138 15 -23 33 -41 39 -39 6 2 53 57 104 123 51 65 152 196
225 289 73 94 168 218 210 277 43 59 99 128 124 154 29 29 40 44 28 41 -62
-19 -371 -61 -530 -72 -55 -4 -103 -9 -108 -12 -10 -6 10 -42 43 -78 15 -16
57 -69 94 -117 62 -82 65 -88 42 -88 -17 0 -37 15 -67 51 -31 37 -44 47 -50
37 -6 -9 -9 -7 -9 9 0 22 -62 82 -68 65 -1 -5 24 -59 58 -120 33 -61 60 -116
60 -122 0 -21 -16 -9 -37 29 -29 51 -103 136 -118 136 -16 0 -127 -127 -152
-173 l-20 -39 41 -58 c23 -32 46 -59 51 -59 6 -1 11 11 13 27 3 23 -2 30 -31
42 -18 7 -40 22 -48 31 -13 16 -12 17 11 11 14 -4 42 -7 63 -7 25 0 37 -4 37
-14 0 -8 18 -33 39 -55 22 -23 41 -51 44 -64 3 -21 4 -21 12 -3 5 12 3 31 -4
50 -26 63 -25 70 15 89 51 25 65 10 36 -42 -28 -49 -28 -61 -2 -33 12 12 27
22 35 22 8 0 17 5 21 12 5 8 2 9 -9 5 -10 -3 -17 -4 -17 -1 0 7 121 153 156
188 36 36 111 133 172 222 35 53 46 62 77 66 19 2 35 3 35 2 0 -4 -200 -253
-251 -314 -59 -71 -233 -292 -253 -322 -14 -22 -26 -28 -53 -28 -30 0 -33 -2
-23 -19 14 -27 -9 -40 -26 -15 -128 183 -326 440 -487 633 -67 80 -70 95 -13
66 15 -8 37 -15 47 -15 12 0 19 -7 19 -19 0 -26 133 -211 237 -329 l38 -43 45
70 c25 39 64 98 87 130 23 33 39 62 36 65 -17 17 -42 0 -85 -57 -63 -83 -101
-123 -105 -110 -4 12 84 155 139 226 21 27 38 52 38 56 0 5 -51 11 -112 15
-127 8 -454 50 -508 66 -60 17 -60 12 -6 -43z m515 -87 c10 -5 -2 -20 -45 -54
-32 -25 -63 -46 -68 -46 -16 0 -115 79 -127 101 -11 21 -11 21 108 14 65 -4
124 -11 132 -15z m534 7 c-16 -27 -79 -74 -114 -86 -46 -15 -61 -8 -93 39
l-25 38 62 6 c34 3 76 8 92 9 71 9 86 7 78 -6z m-653 -182 c13 -14 19 -25 13
-25 -5 0 -20 11 -33 25 -13 14 -19 25 -13 25 5 0 20 -11 33 -25z m260 -157 c0
-13 3 -33 6 -45 5 -17 2 -23 -9 -23 -16 0 -33 62 -22 80 11 18 25 11 25 -12z"/>
<path d="M3930 2234 c0 -8 5 -12 10 -9 6 3 10 10 10 16 0 5 -4 9 -10 9 -5 0
-10 -7 -10 -16z"/>
<path d="M3837 2225 c-4 -8 -3 -16 1 -19 4 -3 9 4 9 15 2 23 -3 25 -10 4z"/>
<path d="M3909 2193 c-13 -16 -12 -17 4 -4 16 13 21 21 13 21 -2 0 -10 -8 -17
-17z"/>
<path d="M6245 2188 c4 -23 1 -29 -19 -34 -14 -3 -30 -3 -35 1 -7 3 -8 0 -5
-9 5 -14 10 -14 39 -2 18 8 36 12 39 8 12 -11 5 13 -10 38 l-15 25 6 -27z"/>
<path d="M6100 2198 c0 -17 33 -88 41 -88 13 0 12 3 -16 51 -14 24 -25 41 -25
37z"/>
<path d="M4106 2166 c-3 -13 -9 -32 -12 -43 -5 -12 -4 -15 3 -8 11 10 28 75
20 75 -3 0 -8 -11 -11 -24z"/>
<path d="M4185 2159 c-4 -6 -5 -13 -2 -16 3 -3 2 -16 -3 -29 -5 -13 -6 -25 -2
-28 5 -3 16 15 25 40 13 36 14 44 2 44 -8 0 -17 -5 -20 -11z"/>
<path d="M3985 2149 c7 -11 35 -12 35 -1 0 4 -9 8 -20 9 -11 1 -18 -2 -15 -8z"/>
<path d="M6036 2130 c3 -19 10 -39 15 -44 13 -14 10 2 -7 44 l-14 35 6 -35z"/>
<path d="M5985 2080 c-19 -8 -19 -9 2 -9 12 -1 25 4 28 9 7 12 -2 12 -30 0z"/>
<path d="M5938 2063 c7 -3 16 -2 19 1 4 3 -2 6 -13 5 -11 0 -14 -3 -6 -6z"/>
</g>
</svg>
